<svg width="150" height="66" viewBox="0 0 150 66" fill="none" xmlns="http://www.w3.org/2000/svg">
<path d="M21.312 35H16.832L6.688 19.672V35H2.208V12.632H6.688L16.832 27.992V12.632H21.312V35ZM24.5872 26.072C24.5872 24.28 24.9392 22.6907 25.6432 21.304C26.3686 19.9173 27.3393 18.8507 28.5553 18.104C29.7926 17.3573 31.1686 16.984 32.6833 16.984C34.0059 16.984 35.1579 17.2507 36.1393 17.784C37.1419 18.3173 37.9419 18.9893 38.5393 19.8V17.272H43.0513V35H38.5393V32.408C37.9633 33.24 37.1633 33.9333 36.1393 34.488C35.1366 35.0213 33.9739 35.288 32.6513 35.288C31.1579 35.288 29.7926 34.904 28.5553 34.136C27.3393 33.368 26.3686 32.2907 25.6432 30.904C24.9392 29.496 24.5872 27.8853 24.5872 26.072ZM38.5393 26.136C38.5393 25.048 38.3259 24.12 37.8993 23.352C37.4726 22.5627 36.8966 21.9653 36.1713 21.56C35.4459 21.1333 34.6673 20.92 33.8353 20.92C33.0033 20.92 32.2353 21.1227 31.5312 21.528C30.8273 21.9333 30.2513 22.5307 29.8033 23.32C29.3766 24.088 29.1633 25.0053 29.1633 26.072C29.1633 27.1387 29.3766 28.0773 29.8033 28.888C30.2513 29.6773 30.8273 30.2853 31.5312 30.712C32.2566 31.1387 33.0246 31.352 33.8353 31.352C34.6673 31.352 35.4459 31.1493 36.1713 30.744C36.8966 30.3173 37.4726 29.72 37.8993 28.952C38.3259 28.1627 38.5393 27.224 38.5393 26.136ZM64.1628 17.272V35H59.6508V32.76C59.0748 33.528 58.3174 34.136 57.3788 34.584C56.4614 35.0107 55.4588 35.224 54.3708 35.224C52.9841 35.224 51.7574 34.936 50.6908 34.36C49.6241 33.7627 48.7814 32.8987 48.1628 31.768C47.5654 30.616 47.2668 29.2507 47.2668 27.672V17.272H51.7468V27.032C51.7468 28.44 52.0988 29.528 52.8028 30.296C53.5068 31.0427 54.4668 31.416 55.6828 31.416C56.9201 31.416 57.8908 31.0427 58.5948 30.296C59.2988 29.528 59.6508 28.44 59.6508 27.032V17.272H64.1628ZM73.799 20.952V29.528C73.799 30.1253 73.9377 30.5627 74.215 30.84C74.5137 31.096 75.0043 31.224 75.687 31.224H77.767V35H74.951C71.175 35 69.287 33.1653 69.287 29.496V20.952H67.175V17.272H69.287V12.888H73.799V17.272H77.767V20.952H73.799Z" fill="#588C9A"/>
<path d="M88.408 30.664L88.408 34.28L82.456 34.28L82.456 53L77.976 53L77.976 34.28L72.024 34.28L72.024 30.664L88.408 30.664ZM108.157 43.752C108.157 44.392 108.114 44.968 108.029 45.48L95.0687 45.48C95.1754 46.76 95.6234 47.7627 96.4127 48.488C97.2021 49.2133 98.1727 49.576 99.3247 49.576C100.989 49.576 102.173 48.8613 102.877 47.432L107.709 47.432C107.197 49.1387 106.215 50.5467 104.765 51.656C103.314 52.744 101.533 53.288 99.4207 53.288C97.7141 53.288 96.1781 52.9147 94.8127 52.168C93.4687 51.4 92.4127 50.3227 91.6447 48.936C90.8981 47.5493 90.5247 45.9493 90.5247 44.136C90.5247 42.3013 90.8981 40.6907 91.6447 39.304C92.3914 37.9173 93.4367 36.8507 94.7807 36.104C96.1247 35.3573 97.6714 34.984 99.4207 34.984C101.106 34.984 102.61 35.3467 103.933 36.072C105.277 36.7973 106.311 37.832 107.037 39.176C107.783 40.4987 108.157 42.024 108.157 43.752ZM103.517 42.472C103.495 41.32 103.079 40.4027 102.269 39.72C101.458 39.016 100.466 38.664 99.2927 38.664C98.1834 38.664 97.2447 39.0053 96.4767 39.688C95.7301 40.3493 95.2714 41.2773 95.1007 42.472L103.517 42.472ZM110.275 44.136C110.275 42.3013 110.648 40.7013 111.395 39.336C112.141 37.9493 113.176 36.8827 114.499 36.136C115.821 35.368 117.336 34.984 119.043 34.984C121.24 34.984 123.053 35.5387 124.483 36.648C125.933 37.736 126.904 39.272 127.395 41.256L122.563 41.256C122.307 40.488 121.869 39.8907 121.251 39.464C120.653 39.016 119.907 38.792 119.011 38.792C117.731 38.792 116.717 39.2613 115.971 40.2C115.224 41.1173 114.851 42.4293 114.851 44.136C114.851 45.8213 115.224 47.1333 115.971 48.072C116.717 48.9893 117.731 49.448 119.011 49.448C120.824 49.448 122.008 48.6373 122.563 47.016L127.395 47.016C126.904 48.936 125.933 50.4613 124.483 51.592C123.032 52.7227 121.219 53.288 119.043 53.288C117.336 53.288 115.821 52.9147 114.499 52.168C113.176 51.4 112.141 50.3333 111.395 48.968C110.648 47.5813 110.275 45.9707 110.275 44.136ZM140.661 35.016C142.005 35.016 143.199 35.3147 144.245 35.912C145.29 36.488 146.101 37.352 146.677 38.504C147.274 39.6347 147.573 41 147.573 42.6L147.573 53L143.093 53L143.093 43.208C143.093 41.8 142.741 40.7227 142.037 39.976C141.333 39.208 140.373 38.824 139.157 38.824C137.919 38.824 136.938 39.208 136.213 39.976C135.509 40.7227 135.157 41.8 135.157 43.208L135.157 53L130.677 53L130.677 29.32L135.157 29.32L135.157 37.48C135.733 36.712 136.501 36.1147 137.461 35.688C138.421 35.24 139.487 35.016 140.661 35.016Z" fill="#588C9A"/>
<rect x="76" y="34" width="3" height="1" fill="#588C9A"/>
</svg>
